<mxfile host="app.diagrams.net" agent="Mozilla/5.0 (Macintosh; Intel Mac OS X 10_15_7) AppleWebKit/537.36 (KHTML, like Gecko) Chrome/135.0.0.0 Safari/537.36" version="26.2.14">
  <diagram name="Page-1" id="74e2e168-ea6b-b213-b513-2b3c1d86103e">
    <mxGraphModel dx="1473" dy="705" grid="1" gridSize="10" guides="1" tooltips="1" connect="1" arrows="1" fold="1" page="1" pageScale="1" pageWidth="1100" pageHeight="850" background="none" math="0" shadow="0">
      <root>
        <mxCell id="0" />
        <mxCell id="1" parent="0" />
        <mxCell id="77e6c97f196da883-1" value="&lt;h2&gt;&lt;font style=&quot;font-size: 23px;&quot;&gt;USB switch flow&lt;/font&gt;&lt;/h2&gt;" style="swimlane;html=1;childLayout=stackLayout;startSize=20;rounded=0;shadow=0;labelBackgroundColor=none;strokeWidth=1;fontFamily=Verdana;fontSize=8;align=center;" parent="1" vertex="1">
          <mxGeometry x="20" y="160" width="920" height="720" as="geometry">
            <mxRectangle x="70" y="40" width="220" height="40" as="alternateBounds" />
          </mxGeometry>
        </mxCell>
        <mxCell id="77e6c97f196da883-2" value="uboot" style="swimlane;html=1;startSize=20;fontSize=16;" parent="77e6c97f196da883-1" vertex="1">
          <mxGeometry y="20" width="210" height="700" as="geometry" />
        </mxCell>
        <mxCell id="xCgZh7yVD2SJTdRkjmUY-3" value="" style="edgeStyle=orthogonalEdgeStyle;rounded=0;orthogonalLoop=1;jettySize=auto;html=1;" parent="77e6c97f196da883-2" source="77e6c97f196da883-8" target="77e6c97f196da883-9" edge="1">
          <mxGeometry relative="1" as="geometry" />
        </mxCell>
        <mxCell id="77e6c97f196da883-8" value="read fos_flags" style="rounded=1;whiteSpace=wrap;html=1;shadow=0;labelBackgroundColor=none;strokeWidth=1;fontFamily=Verdana;fontSize=16;align=center;textShadow=1;" parent="77e6c97f196da883-2" vertex="1">
          <mxGeometry x="20" y="65" width="175" height="60" as="geometry" />
        </mxCell>
        <mxCell id="77e6c97f196da883-9" value="set y_cable = !fos_flags[0]" style="rounded=1;whiteSpace=wrap;html=1;shadow=0;labelBackgroundColor=none;strokeWidth=1;fontFamily=Verdana;fontSize=16;align=center;textShadow=1;" parent="77e6c97f196da883-2" vertex="1">
          <mxGeometry x="20" y="155" width="175" height="60" as="geometry" />
        </mxCell>
        <mxCell id="77e6c97f196da883-3" value="kernel" style="swimlane;html=1;startSize=20;fontSize=16;" parent="77e6c97f196da883-1" vertex="1">
          <mxGeometry x="210" y="20" width="440" height="700" as="geometry" />
        </mxCell>
        <mxCell id="xCgZh7yVD2SJTdRkjmUY-11" value="Yes" style="edgeStyle=orthogonalEdgeStyle;rounded=0;orthogonalLoop=1;jettySize=auto;html=1;" parent="77e6c97f196da883-3" source="77e6c97f196da883-13" target="xCgZh7yVD2SJTdRkjmUY-10" edge="1">
          <mxGeometry relative="1" as="geometry" />
        </mxCell>
        <mxCell id="77e6c97f196da883-13" value="fos_flags[0]==0?" style="rhombus;whiteSpace=wrap;html=1;rounded=0;shadow=0;labelBackgroundColor=none;strokeWidth=1;fontFamily=Verdana;fontSize=16;align=center;textShadow=1;" parent="77e6c97f196da883-3" vertex="1">
          <mxGeometry x="20" y="155" width="180" height="60" as="geometry" />
        </mxCell>
        <mxCell id="xCgZh7yVD2SJTdRkjmUY-10" value="echo host&amp;gt;$&lt;span style=&quot;color: rgb(220, 220, 170); font-family: Menlo, Monaco, &amp;quot;Courier New&amp;quot;, monospace; font-size: 12px; text-align: left; white-space: pre; background-color: rgb(31, 31, 31);&quot;&gt;USB_ROLE&lt;/span&gt;" style="rounded=1;whiteSpace=wrap;html=1;shadow=0;labelBackgroundColor=none;strokeWidth=1;fontFamily=Verdana;fontSize=16;align=center;textShadow=1;" parent="77e6c97f196da883-3" vertex="1">
          <mxGeometry x="22.5" y="260" width="175" height="60" as="geometry" />
        </mxCell>
        <mxCell id="xCgZh7yVD2SJTdRkjmUY-14" value="No" style="edgeStyle=orthogonalEdgeStyle;rounded=0;orthogonalLoop=1;jettySize=auto;html=1;entryX=0;entryY=0.5;entryDx=0;entryDy=0;" parent="77e6c97f196da883-3" source="77e6c97f196da883-13" target="xCgZh7yVD2SJTdRkjmUY-15" edge="1">
          <mxGeometry relative="1" as="geometry">
            <mxPoint x="230" y="185" as="targetPoint" />
          </mxGeometry>
        </mxCell>
        <mxCell id="xCgZh7yVD2SJTdRkjmUY-15" value="echo device&amp;gt;$&lt;span style=&quot;color: rgb(220, 220, 170); font-family: Menlo, Monaco, &amp;quot;Courier New&amp;quot;, monospace; font-size: 12px; text-align: left; white-space: pre; background-color: rgb(31, 31, 31);&quot;&gt;USB_ROLE&lt;/span&gt;" style="rounded=1;whiteSpace=wrap;html=1;shadow=0;labelBackgroundColor=none;strokeWidth=1;fontFamily=Verdana;fontSize=16;align=center;textShadow=1;" parent="77e6c97f196da883-3" vertex="1">
          <mxGeometry x="260" y="155" width="175" height="60" as="geometry" />
        </mxCell>
        <mxCell id="xCgZh7yVD2SJTdRkjmUY-5" value="" style="edgeStyle=orthogonalEdgeStyle;rounded=0;orthogonalLoop=1;jettySize=auto;html=1;entryX=0;entryY=0.5;entryDx=0;entryDy=0;" parent="77e6c97f196da883-1" source="77e6c97f196da883-9" target="77e6c97f196da883-13" edge="1">
          <mxGeometry relative="1" as="geometry">
            <mxPoint x="190" y="205" as="targetPoint" />
          </mxGeometry>
        </mxCell>
        <mxCell id="xCgZh7yVD2SJTdRkjmUY-32" style="edgeStyle=orthogonalEdgeStyle;rounded=0;orthogonalLoop=1;jettySize=auto;html=1;" parent="77e6c97f196da883-1" source="xCgZh7yVD2SJTdRkjmUY-10" target="xCgZh7yVD2SJTdRkjmUY-29" edge="1">
          <mxGeometry relative="1" as="geometry" />
        </mxCell>
        <mxCell id="77e6c97f196da883-4" value="vdad-dev-mode-check" style="swimlane;html=1;startSize=20;fontSize=16;" parent="77e6c97f196da883-1" vertex="1">
          <mxGeometry x="650" y="20" width="270" height="700" as="geometry" />
        </mxCell>
        <mxCell id="xCgZh7yVD2SJTdRkjmUY-34" value="" style="edgeStyle=orthogonalEdgeStyle;rounded=0;orthogonalLoop=1;jettySize=auto;html=1;" parent="77e6c97f196da883-4" source="xCgZh7yVD2SJTdRkjmUY-29" target="xCgZh7yVD2SJTdRkjmUY-33" edge="1">
          <mxGeometry relative="1" as="geometry" />
        </mxCell>
        <mxCell id="xCgZh7yVD2SJTdRkjmUY-29" value="read&amp;nbsp;&lt;span style=&quot;color: rgb(156, 220, 254); background-color: rgb(31, 31, 31); font-family: Menlo, Monaco, &amp;quot;Courier New&amp;quot;, monospace; font-size: 12px; white-space: pre;&quot;&gt;DEVELOPER_MODE&lt;/span&gt;" style="rounded=1;whiteSpace=wrap;html=1;shadow=0;labelBackgroundColor=none;strokeWidth=1;fontFamily=Verdana;fontSize=16;align=center;textShadow=1;" parent="77e6c97f196da883-4" vertex="1">
          <mxGeometry x="37.5" y="260" width="175" height="60" as="geometry" />
        </mxCell>
        <mxCell id="xCgZh7yVD2SJTdRkjmUY-37" value="Yes" style="edgeStyle=orthogonalEdgeStyle;rounded=0;orthogonalLoop=1;jettySize=auto;html=1;entryX=0.5;entryY=0;entryDx=0;entryDy=0;" parent="77e6c97f196da883-4" source="xCgZh7yVD2SJTdRkjmUY-33" edge="1">
          <mxGeometry relative="1" as="geometry">
            <mxPoint x="125" y="470" as="targetPoint" />
          </mxGeometry>
        </mxCell>
        <mxCell id="xCgZh7yVD2SJTdRkjmUY-33" value="&lt;div style=&quot;background-color: rgb(31, 31, 31); font-family: Menlo, Monaco, &amp;quot;Courier New&amp;quot;, monospace; font-size: 12px; line-height: 18px; white-space: pre;&quot;&gt;&lt;span&gt;&lt;span style=&quot;color: rgb(156, 220, 254);&quot;&gt;DEVELOPER_MODE &lt;/span&gt;&lt;/span&gt;&lt;span style=&quot;color: rgb(212, 212, 212);&quot;&gt;==&lt;/span&gt;&lt;span style=&quot;color: rgb(204, 204, 204);&quot;&gt; &lt;/span&gt;&lt;span style=&quot;color: rgb(206, 145, 120);&quot;&gt;&quot;enable&quot;&lt;/span&gt;&lt;/div&gt;" style="rhombus;whiteSpace=wrap;html=1;fontSize=16;fontFamily=Verdana;rounded=1;shadow=0;labelBackgroundColor=none;strokeWidth=1;" parent="77e6c97f196da883-4" vertex="1">
          <mxGeometry x="5" y="350" width="240" height="70" as="geometry" />
        </mxCell>
        <mxCell id="xCgZh7yVD2SJTdRkjmUY-35" value="echo device&amp;gt;$&lt;span style=&quot;color: rgb(220, 220, 170); font-family: Menlo, Monaco, &amp;quot;Courier New&amp;quot;, monospace; font-size: 12px; text-align: left; white-space: pre; background-color: rgb(31, 31, 31);&quot;&gt;USB_ROLE&lt;/span&gt;" style="rounded=1;whiteSpace=wrap;html=1;shadow=0;labelBackgroundColor=none;strokeWidth=1;fontFamily=Verdana;fontSize=16;align=center;textShadow=1;" parent="77e6c97f196da883-4" vertex="1">
          <mxGeometry x="37.5" y="470" width="175" height="60" as="geometry" />
        </mxCell>
        <UserObject label="&lt;div style=&quot;background-color: rgb(31, 31, 31); font-family: Menlo, Monaco, &amp;quot;Courier New&amp;quot;, monospace; font-weight: normal; font-size: 12px; line-height: 18px; white-space: pre; color: rgb(204, 204, 204);&quot;&gt;&lt;div style=&quot;&quot;&gt;&lt;span style=&quot;color: rgb(206, 145, 120);&quot;&gt;&lt;font color=&quot;#dcdcaa&quot;&gt;USB_ROLE=&lt;/font&gt;&lt;/span&gt;&lt;span style=&quot;color: rgb(206, 145, 120);&quot;&gt;/sys/class/usb_role/11201000.usb-role-switch/role&lt;/span&gt;&lt;/div&gt;&lt;/div&gt;" link="&lt;div style=&quot;color: #cccccc;background-color: #1f1f1f;font-family: Menlo, Monaco, &#39;Courier New&#39;, monospace;font-weight: normal;font-size: 12px;line-height: 18px;white-space: pre;&quot;&gt;&lt;div&gt;&lt;span style=&quot;color: #dcdcaa;&quot;&gt;echo&lt;/span&gt;&lt;span style=&quot;color: #cccccc;&quot;&gt; &lt;/span&gt;&lt;span style=&quot;color: #ce9178;&quot;&gt;&quot;&lt;/span&gt;&lt;span style=&quot;color: #9cdcfe;&quot;&gt;$role&lt;/span&gt;&lt;span style=&quot;color: #ce9178;&quot;&gt;&quot;&lt;/span&gt;&lt;span style=&quot;color: #cccccc;&quot;&gt; &lt;/span&gt;&lt;span style=&quot;color: #d4d4d4;&quot;&gt;&amp;gt;&lt;/span&gt;&lt;span style=&quot;color: #cccccc;&quot;&gt; &lt;/span&gt;&lt;span style=&quot;color: #ce9178;&quot;&gt;/sys/class/usb_role/11201000.usb-role-switch/role&lt;/span&gt;&lt;/div&gt;&lt;/div&gt;" id="xCgZh7yVD2SJTdRkjmUY-13">
          <mxCell style="text;whiteSpace=wrap;html=1;" parent="1" vertex="1">
            <mxGeometry x="200" y="110" width="500" height="40" as="geometry" />
          </mxCell>
        </UserObject>
        <UserObject label="&lt;div style=&quot;background-color: rgb(31, 31, 31); font-family: Menlo, Monaco, &amp;quot;Courier New&amp;quot;, monospace; font-weight: normal; font-size: 12px; line-height: 18px; white-space: pre;&quot;&gt;&lt;div style=&quot;&quot;&gt;&lt;span style=&quot;color: rgb(156, 220, 254); background-color: light-dark(rgb(31, 31, 31), rgb(210, 210, 210));&quot;&gt;DEVELOPER_MODE&lt;/span&gt;&lt;span&gt;&lt;span style=&quot;background-color: light-dark(rgb(31, 31, 31), rgb(210, 210, 210));&quot;&gt;&lt;span style=&quot;color: rgb(0, 0, 0); background-color: rgb(236, 236, 236); font-family: Verdana; font-size: 16px; text-align: center; white-space: normal;&quot;&gt;=&lt;/span&gt;&lt;/span&gt;&lt;/span&gt;&lt;span style=&quot;color: rgb(206, 145, 120); background-color: light-dark(rgb(31, 31, 31), rgb(210, 210, 210));&quot;&gt;&quot;com.amazon.devconf/system/security/developer_mode&quot;&lt;/span&gt;&lt;/div&gt;&lt;/div&gt;" link="&lt;div style=&quot;color: #cccccc;background-color: #1f1f1f;font-family: Menlo, Monaco, &#39;Courier New&#39;, monospace;font-weight: normal;font-size: 12px;line-height: 18px;white-space: pre;&quot;&gt;&lt;div&gt;&lt;span style=&quot;color: #ce9178;&quot;&gt;&quot;com.amazon.devconf/system/security/developer_mode&quot;&lt;/span&gt;&lt;/div&gt;&lt;/div&gt;" id="xCgZh7yVD2SJTdRkjmUY-31">
          <mxCell style="text;whiteSpace=wrap;html=1;" parent="1" vertex="1">
            <mxGeometry x="200" y="80" width="430" height="40" as="geometry" />
          </mxCell>
        </UserObject>
        <UserObject label="&lt;div style=&quot;color: #cccccc;background-color: #1f1f1f;font-family: Menlo, Monaco, &#39;Courier New&#39;, monospace;font-weight: normal;font-size: 12px;line-height: 18px;white-space: pre;&quot;&gt;&lt;div&gt;&lt;span style=&quot;color: #9cdcfe;&quot;&gt;VDAD_NETWORK_MODE&lt;/span&gt;&lt;span style=&quot;color: #d4d4d4;&quot;&gt;=&lt;/span&gt;&lt;span style=&quot;color: #ce9178;&quot;&gt;&quot;com.amazon.devconf/system/developer/vda_network_mode&quot;&lt;/span&gt;&lt;/div&gt;&lt;div&gt;&lt;span style=&quot;color: #9cdcfe;&quot;&gt;&lt;/span&gt;&lt;/div&gt;&lt;/div&gt;" link="&lt;div style=&quot;color: #cccccc;background-color: #1f1f1f;font-family: Menlo, Monaco, &#39;Courier New&#39;, monospace;font-weight: normal;font-size: 12px;line-height: 18px;white-space: pre;&quot;&gt;&lt;div&gt;&lt;span style=&quot;color: #9cdcfe;&quot;&gt;VDAD_NETWORK_MODE&lt;/span&gt;&lt;span style=&quot;color: #d4d4d4;&quot;&gt;=&lt;/span&gt;&lt;span style=&quot;color: #ce9178;&quot;&gt;&quot;com.amazon.devconf/system/developer/vda_network_mode&quot;&lt;/span&gt;&lt;/div&gt;&lt;div&gt;&lt;span style=&quot;color: #9cdcfe;&quot;&gt;&lt;/span&gt;&lt;/div&gt;&lt;/div&gt;" id="xCgZh7yVD2SJTdRkjmUY-40">
          <mxCell style="text;whiteSpace=wrap;html=1;" parent="1" vertex="1">
            <mxGeometry x="200" y="50" width="560" height="40" as="geometry" />
          </mxCell>
        </UserObject>
      </root>
    </mxGraphModel>
  </diagram>
</mxfile>
